# xmcd
#
# Track frame offsets:
#	150
#	15237
#	28447
#	44499
#	62041
#	77752
#	94620
#	107528
#	121881
#	138262
#	161102
#	175243
#	193642
#
# Disc length: 2781 seconds
#
# Revision: 1
# Processed by: cddbd v1.5.2PL0 Copyright (c) Steve Scherf et al.
# Submitted via: audiograbber 1.83.01
#
DISCID=a60adb0d
DTITLE=Tim Bendzko - Wenn Worte meine Sprache wären
DYEAR=2011
DGENRE=Deutsch
TTITLE0=Auf den ersten Blick
TTITLE1=Sag einfach "Ja"
TTITLE2=Mehr davon
TTITLE3=Du warst noch nie hier
TTITLE4=Wenn Worte meine Sprache wären
TTITLE5=Das letzte Mal
TTITLE6=Ich kann alles sehen
TTITLE7=Nur noch kurz die Welt retten
TTITLE8=Es kommt zurück
TTITLE9=Ich laufe
TTITLE10=Schall and Rauch
TTITLE11=Ich hör' nicht auf
TTITLE12=Keine Zeit
EXTD=
EXTT0=
EXTT1=
EXTT2=
EXTT3=
EXTT4=
EXTT5=
EXTT6=
EXTT7=
EXTT8=
EXTT9=
EXTT10=
EXTT11=
EXTT12=
PLAYORDER=
